<!DOCTYPE svg PUBLIC "-//W3C//DTD SVG 1.1//EN" "http://www.w3.org/Graphics/SVG/1.1/DTD/svg11.dtd">

<!-- Uploaded to: SVG Repo, www.svgrepo.com, Transformed by: SVG Repo Mixer Tools -->
<svg version="1.1" id="Layer_1" xmlns="http://www.w3.org/2000/svg" xmlns:xlink="http://www.w3.org/1999/xlink" viewBox="0 0 512 512" xml:space="preserve" fill="#000000" stroke="#000000" stroke-width="0.00512">

<g id="SVGRepo_bgCarrier" stroke-width="0"/>

<g id="SVGRepo_tracerCarrier" stroke-linecap="round" stroke-linejoin="round"/>

<g id="SVGRepo_iconCarrier"> <polygon style="fill:#000000;" points="176.105,199.386 176.105,353.396 450.622,353.396 481.512,199.386 "/> <g> <path style="fill:#000000;" d="M508.528,114.125c-2.913-3.555-7.267-5.617-11.864-5.617H191.443V46.646 c0-6.818-4.5-12.816-11.045-14.724L75.123,1.227c-8.137-2.37-16.647,2.299-19.017,10.431c-2.371,8.132,2.299,16.647,10.431,19.017 l94.231,27.474v65.695v75.54v154.01v56.766c0,8.471,6.867,15.338,15.338,15.338c0,0,58.046,0,58.309,0 c15.222,0,27.608,12.385,27.608,27.608c0,15.222-12.385,27.608-27.608,27.608s-27.608-12.385-27.608-27.608 c0-8.471-6.867-15.338-15.338-15.338s-15.338,6.867-15.338,15.338c0,32.137,26.146,58.283,58.283,58.283 s58.283-26.146,58.283-58.283s-26.146-58.283-58.283-58.283c-0.262,0-42.971,0-42.971,0v-26.091h259.178 c2.741,0,5.337-0.725,7.591-2.009c3.755-2.14,6.549-5.834,7.448-10.311l30.89-154.012c0-0.002,0-0.002,0-0.003l15.15-75.537 C512.604,122.355,511.44,117.68,508.528,114.125z M477.943,139.183l-8.999,44.865H191.443v-44.865H477.943z M191.443,338.059 V214.724h271.348l-24.736,123.335H191.443z"/> <path style="fill:#000000;" d="M399.282,394.824h-42.945c-8.471,0-15.338,6.867-15.338,15.338s6.867,15.338,15.338,15.338h42.945 c15.222,0,27.608,12.385,27.608,27.608c0,15.222-12.385,27.608-27.608,27.608c-15.222,0-27.608-12.385-27.608-27.608 c0-8.471-6.867-15.337-15.338-15.337c-8.471,0-15.338,6.867-15.338,15.337c0,32.137,26.146,58.283,58.283,58.283 s58.283-26.146,58.283-58.283S431.418,394.824,399.282,394.824z"/> <path style="fill:#000000;" d="M110.439,181.105H15.338C6.867,181.105,0,174.239,0,165.768c0-8.471,6.867-15.338,15.338-15.338 h95.102c8.471,0,15.338,6.867,15.338,15.338C125.777,174.239,118.91,181.105,110.439,181.105z"/> <path style="fill:#000000;" d="M110.439,253.958H46.031c-8.471,0-15.338-6.867-15.338-15.338s6.867-15.338,15.338-15.338h64.408 c8.471,0,15.338,6.867,15.338,15.338S118.91,253.958,110.439,253.958z"/> <path style="fill:#000000;" d="M110.439,326.812H76.726c-8.471,0-15.338-6.867-15.338-15.337c0-8.471,6.867-15.338,15.338-15.338 h33.713c8.471,0,15.338,6.867,15.338,15.338C125.777,319.945,118.91,326.812,110.439,326.812z"/> </g> </g>

</svg>