<svg xmlns="http://www.w3.org/2000/svg" xmlns:xlink="http://www.w3.org/1999/xlink">
<style xmlns="http://www.w3.org/2000/svg"><![CDATA[:root>svg{display:none}:root>svg:target{display:block}]]></style>
	<svg id="icon-add-to-cart" xmlns="http://www.w3.org/2000/svg" fill="none" viewBox="0 0 25 22">
		<path fill="currentColor" fill-rule="evenodd" d="M1.5 1.913c0-.488.395-.883.882-.883h2.016c1.1 0 2.087.682 2.476 1.712l.465 1.23a.895.895 0 0 1 .043 0l13.83-.012c1.886-.002 3.168 1.914 2.448 3.657l-2.276 5.51a2.059 2.059 0 0 1-1.534 1.24l-7.628 1.386a2.647 2.647 0 0 1-2.95-1.669L5.224 3.365a.882.882 0 0 0-.825-.57H2.382a.882.882 0 0 1-.882-.882zm6.505 3.822 2.918 7.725c.15.399.565.633.984.557l7.627-1.387a.294.294 0 0 0 .22-.177l2.275-5.51a.882.882 0 0 0-.816-1.219l-13.208.011z" clip-rule="evenodd"/>
		<path fill="currentColor" d="M9.147 21.03a1.765 1.765 0 1 0 0-3.53 1.765 1.765 0 0 0 0 3.53zm10.588 0a1.765 1.765 0 1 0 0-3.53 1.765 1.765 0 0 0 0 3.53z"/>
	</svg>

</svg>