<svg fill="red" data-v-694b7be6="" width="187" height="40" viewBox="0 0 187 40" xmlns="http://www.w3.org/2000/svg" class=""><path d="M18.361 6.88995L0 0V40H36.7219V0L18.361 6.88995ZM32.854 36.2182H18.361V30.7751L3.86011 36.2182V34.0823L32.854 23.1809V36.2182ZM32.854 20.8995L3.86011 31.801V29.6651L32.854 18.7636V20.8995ZM32.854 16.49L3.86011 27.3837V25.2478L32.854 14.3464V16.49ZM32.854 12.0727L3.86011 22.9665V9.93684H18.3531V15.3876L32.8462 9.93684V12.0727H32.854Z"></path><path
        d="M57.8234 21.3436L57.8078 14.201L54.2139 20.0805H52.9611L49.3672 14.3388V21.3436H46.7207V9.40869H49.054L53.6266 16.8269L58.1209 9.40869H60.4542L60.4777 21.3436H57.8234Z"></path><path
        d="M63.1711 9.40869H65.9742V17.179L71.7996 9.40869H74.4461V21.3436H71.6587V13.5886L65.8333 21.3436H63.1711V9.40869Z"></path><path
        d="M85.2435 9.93692C86.0422 10.2891 86.6529 10.7867 87.0836 11.4374C87.5142 12.0881 87.7256 12.8537 87.7256 13.7417C87.7256 14.6144 87.5142 15.38 87.0836 16.0384C86.6529 16.6891 86.0422 17.1943 85.2435 17.5388C84.4449 17.8833 83.5131 18.0594 82.4248 18.0594H79.9662V21.3513H77.1396V9.40869H82.4248C83.5053 9.40869 84.4449 9.58477 85.2435 9.93692ZM84.2022 15.2652C84.6406 14.9053 84.8677 14.4001 84.8677 13.7417C84.8677 13.068 84.6485 12.5551 84.2022 12.1953C83.7637 11.8355 83.1138 11.6594 82.2682 11.6594H79.9662V15.801H82.2682C83.1138 15.801 83.7637 15.625 84.2022 15.2652Z"></path><path
        d="M46.7207 24.8496H49.5238V32.6199L55.3492 24.8496H57.9957V36.7845H55.2083V29.0219L49.3828 36.7845H46.7207V24.8496Z"></path><path
        d="M71.8859 24.8496V36.7845H69.0593V31.885H63.5158V36.7845H60.6892V24.8496H63.5158V29.5501H69.0593V24.8496H71.8859Z"></path><path
        d="M77.0614 36.1954C76.0591 35.6671 75.2683 34.9322 74.6889 33.9982C74.1095 33.0566 73.8276 32.0002 73.8276 30.8212C73.8276 29.6423 74.1173 28.5782 74.6889 27.6442C75.2683 26.7026 76.0513 25.9753 77.0614 25.4471C78.0636 24.9188 79.1989 24.6509 80.4517 24.6509C81.5087 24.6509 82.4639 24.8346 83.3174 25.1944C84.1709 25.5619 84.8912 26.0825 85.4706 26.7638L83.6541 28.4021C82.8319 27.4681 81.8062 27.0011 80.5848 27.0011C79.8253 27.0011 79.1519 27.1619 78.5647 27.4834C77.9696 27.8049 77.5077 28.2566 77.1788 28.8384C76.85 29.4203 76.6777 30.0786 76.6777 30.8136C76.6777 31.5561 76.8421 32.2145 77.1788 32.7887C77.5077 33.3705 77.9696 33.8222 78.5647 34.1437C79.1598 34.4652 79.8331 34.626 80.5848 34.626C81.8062 34.626 82.8319 34.1514 83.6541 33.2097L85.4706 34.848C84.8912 35.537 84.1708 36.0729 83.3096 36.4327C82.4483 36.8002 81.493 36.9762 80.436 36.9762C79.1911 36.9839 78.0636 36.7236 77.0614 36.1954Z"></path><path
        d="M96.9958 27.1003H93.0888V36.7845H90.2935V27.1003H86.4099V24.8496H96.9958V27.1003Z"></path><path d="M106.619 25.3778C107.417 25.73 108.028 26.2276 108.459 26.8783C108.889 27.529 109.101 28.2946 109.101 29.1826C109.101 30.0554 108.889 30.8209 108.459 31.4793C108.028 32.13 107.417 32.6353 106.619 32.9798C105.82 33.3243 104.881 33.5003 103.8 33.5003H101.341V36.7922H98.5149V24.8496H103.8C104.888 24.8496 105.828 25.0257 106.619 25.3778ZM105.585 30.7061C106.024 30.3463 106.251 29.841 106.251 29.1826C106.251 28.5089 106.032 27.996 105.585 27.6362C105.147 27.2764 104.497 27.1003 103.651 27.1003H101.349V31.242H103.651C104.497 31.242 105.139 31.0582 105.585 30.7061Z"></path><path
        d="M121.691 24.8499L116.492 34.2968C115.991 35.2078 115.388 35.8968 114.692 36.3562C113.987 36.8231 113.22 37.0528 112.397 37.0528C111.755 37.0528 111.098 36.915 110.409 36.6394L111.09 34.5418C111.575 34.6873 111.982 34.7638 112.311 34.7638C112.664 34.7638 112.977 34.6796 113.251 34.5188C113.533 34.3504 113.783 34.0978 114.018 33.7456L114.12 33.6078L109.305 24.8423H112.319L115.561 31.2499L118.912 24.8423H121.691V24.8499Z"></path><path
        d="M134.235 36.7845L134.219 29.642L130.625 35.5214H129.372L125.779 29.7721V36.7845H123.132V24.8496H125.465L130.038 32.2678L134.532 24.8496H136.873L136.889 36.7845H134.235Z"></path><path
        d="M149.033 34.5644V36.7845H139.583V24.8496H148.806V27.062H142.386V29.6573H148.054V31.8008H142.386V34.5644H149.033Z"></path><path
        d="M162.32 24.8496V36.7845H159.494V31.885H153.95V36.7845H151.124V24.8496H153.95V29.5501H159.494V24.8496H162.32Z"></path><path
        d="M174.441 27.1003H170.534V36.7845H167.747V27.1003H163.855V24.8496H174.441V27.1003Z"></path><path d="M182.96 34.2276H177.291L176.211 36.7845H173.313L178.755 24.8496H181.543L187 36.7845H184.04L182.96 34.2276ZM182.067 32.13L180.133 27.5597L178.199 32.13H182.067Z"></path></svg>