<svg xmlns="http://www.w3.org/2000/svg" width="185" height="41" viewBox="0 0 185 41" fill="none">
    <g clipPath="url(#clip0_1_179)">
        <path d="M18.5456 7.59973L0.479156 0.820312V40.1786H36.6119V0.820312L18.5456 7.59973ZM32.8061 36.4575H18.5456V31.1017L4.27734 36.4575V34.3558L32.8061 23.6293V36.4575ZM32.8061 21.3845L4.27734 32.1111V30.0095L32.8061 19.2829V21.3845ZM32.8061 17.0458L4.27734 27.7647V25.6631L32.8061 14.9366V17.0458ZM32.8061 12.6993L4.27734 23.4184V10.5977H18.5378V15.9611L32.7984 10.5977V12.6993H32.8061Z" fill="white"/>
        <path d="M57.3749 21.8216L57.3596 14.7936L53.8233 20.5787H52.5906L49.0544 14.9291V21.8216H46.4503V10.0781H48.7462L53.2454 17.3773L57.6676 10.0781H59.9635L59.9866 21.8216H57.3749Z" fill="white"/>
        <path d="M62.6368 10.0781H65.3949V17.7238L71.1269 10.0781H73.7309V21.8216H70.9882V14.191L65.2563 21.8216H62.6368V10.0781Z" fill="white"/>
        <path d="M84.3551 10.5979C85.141 10.9444 85.7419 11.434 86.1657 12.0743C86.5894 12.7145 86.7974 13.4679 86.7974 14.3416C86.7974 15.2003 86.5894 15.9536 86.1657 16.6015C85.7419 17.2417 85.141 17.7388 84.3551 18.0778C83.5693 18.4168 82.6525 18.5901 81.5816 18.5901H79.1625V21.8291H76.3812V10.0781H81.5816C82.6448 10.0781 83.5693 10.2514 84.3551 10.5979ZM83.3305 15.8407C83.7619 15.4866 83.9853 14.9895 83.9853 14.3416C83.9853 13.6787 83.7697 13.1741 83.3305 12.82C82.8991 12.466 82.2596 12.2927 81.4275 12.2927H79.1625V16.3679H81.4275C82.2596 16.3679 82.8991 16.1947 83.3305 15.8407Z" fill="white"/>
        <path d="M46.4503 25.2712H49.2084V32.9169L54.9404 25.2712H57.5444V37.0147H54.8018V29.3766L49.0697 37.0147H46.4503V25.2712Z" fill="white"/>
        <path d="M71.2118 25.2712V37.0147H68.4306V32.1938H62.976V37.0147H60.1947V25.2712H62.976V29.8963H68.4306V25.2712H71.2118Z" fill="white"/>
        <path d="M76.3043 36.435C75.318 35.9152 74.5399 35.192 73.9698 34.273C73.3997 33.3465 73.1223 32.3071 73.1223 31.147C73.1223 29.987 73.4074 28.94 73.9698 28.021C74.5399 27.0945 75.3104 26.3788 76.3043 25.8591C77.2904 25.3393 78.4075 25.0757 79.6402 25.0757C80.6802 25.0757 81.6201 25.2564 82.4599 25.6105C83.2997 25.9721 84.0085 26.4843 84.5786 27.1547L82.7912 28.7667C81.9822 27.8477 80.9729 27.3882 79.7711 27.3882C79.0238 27.3882 78.3612 27.5464 77.7834 27.8627C77.1979 28.1791 76.7434 28.6235 76.4198 29.196C76.0963 29.7686 75.9267 30.4163 75.9267 31.1395C75.9267 31.8701 76.0885 32.5179 76.4198 33.0829C76.7434 33.6554 77.1979 34.0999 77.7834 34.4162C78.369 34.7325 79.0315 34.8908 79.7711 34.8908C80.9729 34.8908 81.9822 34.4238 82.7912 33.4972L84.5786 35.1092C84.0085 35.7871 83.2996 36.3144 82.4522 36.6685C81.6047 37.0301 80.6648 37.2033 79.6247 37.2033C78.3998 37.2108 77.2904 36.9547 76.3043 36.435Z" fill="white"/>
        <path d="M95.9189 27.4858H92.0746V37.0147H89.3241V27.4858H85.5028V25.2712H95.9189V27.4858Z" fill="white"/>
        <path d="M105.388 25.791C106.173 26.1375 106.774 26.6271 107.198 27.2674C107.621 27.9077 107.83 28.661 107.83 29.5347C107.83 30.3935 107.621 31.1467 107.198 31.7946C106.774 32.4348 106.173 32.932 105.388 33.271C104.602 33.61 103.678 33.7832 102.614 33.7832H100.194V37.0222H97.4136V25.2712H102.614C103.684 25.2712 104.609 25.4445 105.388 25.791ZM104.37 31.0338C104.802 30.6798 105.026 30.1826 105.026 29.5347C105.026 28.8718 104.81 28.3672 104.37 28.0131C103.939 27.6591 103.3 27.4858 102.467 27.4858H100.202V31.5611H102.467C103.3 31.5611 103.931 31.3802 104.37 31.0338Z" fill="white"/>
        <path d="M120.218 25.2716L115.102 34.567C114.609 35.4634 114.016 36.1413 113.331 36.5933C112.637 37.0528 111.883 37.2788 111.073 37.2788C110.441 37.2788 109.795 37.1432 109.117 36.872L109.787 34.8081C110.264 34.9512 110.665 35.0265 110.988 35.0265C111.336 35.0265 111.644 34.9436 111.913 34.7854C112.191 34.6197 112.437 34.3712 112.668 34.0246L112.768 33.889L108.031 25.2642H110.996L114.186 31.569L117.483 25.2642H120.218V25.2716Z" fill="white"/>
        <path d="M132.561 37.0147L132.545 29.9868L129.009 35.7718H127.776L124.24 30.1148V37.0147H121.636V25.2712H123.931L128.431 32.5704L132.853 25.2712H135.156L135.172 37.0147H132.561Z" fill="white"/>
        <path d="M147.121 34.8302V37.0147H137.823V25.2712H146.898V27.4481H140.581V30.0018H146.158V32.1109H140.581V34.8302H147.121Z" fill="white"/>
        <path d="M160.195 25.2712V37.0147H157.414V32.1938H151.959V37.0147H149.179V25.2712H151.959V29.8963H157.414V25.2712H160.195Z" fill="white"/>
        <path d="M172.122 27.4858H168.277V37.0147H165.535V27.4858H161.705V25.2712H172.122V27.4858Z" fill="white"/>
        <path d="M180.504 34.4988H174.926L173.863 37.0147H171.012L176.366 25.2712H179.11L184.479 37.0147H181.567L180.504 34.4988ZM179.625 32.4348L177.722 27.9379L175.819 32.4348H179.625Z" fill="white"/>
    </g>
    <defs>
        <clipPath id="clip0_1_179">
            <rect width="184" height="40" fill="white" transform="translate(0.479156 0.499512)"/>
        </clipPath>
    </defs>
</svg>
